<?xml version="1.0" standalone="no"?>
<!DOCTYPE svg PUBLIC "-//W3C//DTD SVG 20010904//EN"
 "http://www.w3.org/TR/2001/REC-SVG-20010904/DTD/svg10.dtd">
<svg version="1.0" xmlns="http://www.w3.org/2000/svg"
 width="1024.000000pt" height="1536.000000pt" viewBox="0 0 1024.000000 1536.000000"
 preserveAspectRatio="xMidYMid meet">

<g transform="translate(0.000000,1536.000000) scale(0.100000,-0.100000)"
fill="#000000" stroke="none">
<path d="M3408 12060 c-265 -76 -444 -253 -508 -505 -11 -43 -20 -91 -20 -107
0 -17 -25 -74 -59 -136 -33 -59 -85 -160 -117 -225 -31 -65 -58 -116 -61 -113
-3 2 0 13 5 23 32 59 55 191 55 313 0 141 -21 239 -73 345 -26 53 -101 156
-118 162 -8 3 -70 -92 -102 -155 -39 -80 -61 -188 -61 -307 1 -177 50 -331
161 -503 l59 -92 -29 -112 c-16 -62 -40 -171 -53 -242 l-23 -128 -13 93 c-30
232 -138 417 -309 532 -39 26 -72 47 -75 47 -9 0 -37 -137 -43 -213 -12 -142
30 -315 109 -457 42 -75 171 -216 266 -291 l43 -34 9 -95 c11 -131 28 -254 45
-325 21 -90 18 -89 -36 20 -87 175 -193 283 -355 361 -86 41 -180 73 -188 63
-2 -2 0 -43 4 -92 16 -173 99 -347 229 -477 107 -106 221 -170 383 -216 l59
-16 48 -103 c108 -231 263 -454 449 -647 144 -150 268 -254 436 -367 168 -113
266 -167 625 -344 401 -198 586 -318 784 -508 l91 -86 -36 -44 c-57 -69 -119
-161 -119 -175 0 -20 46 -47 67 -40 10 3 47 44 82 91 36 47 67 85 70 85 3 0
31 -34 61 -76 72 -99 93 -118 120 -109 12 4 26 17 32 30 12 27 -3 57 -89 170
l-53 70 82 79 c198 190 348 292 670 456 l228 116 97 -32 c226 -75 421 -70 597
15 99 48 221 154 196 171 -36 25 -180 62 -260 66 -77 5 -199 -9 -265 -31 -19
-6 -19 -5 -1 7 211 146 312 230 388 327 106 132 158 265 158 401 0 95 -6 111
-39 104 -53 -13 -152 -64 -207 -106 -60 -46 -132 -135 -169 -208 -37 -72 -76
-209 -83 -290 l-7 -75 -75 -52 c-75 -53 -283 -183 -293 -183 -3 0 28 33 67 73
91 92 142 169 184 280 43 115 58 223 44 307 -7 35 -14 65 -16 67 -8 9 -140
-67 -198 -112 -103 -82 -196 -230 -233 -370 -9 -33 -19 -107 -21 -165 -3 -58
-7 -115 -10 -127 -3 -15 -35 -38 -116 -82 -62 -33 -151 -82 -198 -109 -47 -28
-86 -49 -88 -47 -7 7 81 504 99 558 40 119 128 216 383 421 117 94 143 125
151 179 4 23 5 197 3 387 l-3 345 -43 86 c-118 236 -376 398 -702 439 -64 8
-214 10 -465 7 -333 -4 -379 -6 -458 -25 -311 -75 -546 -265 -612 -493 -13
-48 -15 -109 -13 -417 3 -348 4 -362 24 -389 11 -15 88 -83 170 -150 241 -198
330 -299 363 -418 14 -48 92 -517 88 -522 -2 -1 -39 17 -81 41 -43 25 -130 71
-193 103 -63 32 -119 66 -125 76 -5 10 -14 71 -18 135 -10 137 -28 210 -75
307 -64 133 -202 286 -313 348 l-50 27 -14 -37 c-7 -22 -13 -82 -13 -143 0
-114 22 -205 72 -305 31 -60 125 -187 159 -214 49 -38 22 -31 -73 20 -125 66
-350 214 -363 238 -6 13 -3 59 10 152 45 307 12 485 -131 699 -73 109 -84 119
-105 94 -27 -34 -73 -138 -90 -204 -22 -86 -15 -247 16 -345 24 -78 77 -180
122 -238 65 -82 13 -42 -124 95 -135 135 -264 291 -323 392 l-27 46 72 97
c142 193 192 306 210 474 13 126 -14 325 -46 336 -6 2 -43 -19 -83 -47 -129
-91 -205 -221 -238 -405 -14 -80 -15 -111 -6 -188 6 -51 14 -103 18 -117 12
-47 -43 65 -79 163 -68 182 -138 496 -116 522 6 8 65 51 131 96 251 172 370
340 408 579 18 107 17 110 -26 103 -111 -17 -257 -97 -345 -189 -84 -88 -162
-272 -175 -411 -7 -71 -23 -86 -23 -20 0 188 28 448 66 625 19 84 27 93 124
117 100 25 220 65 275 93 119 59 229 155 305 267 34 50 100 189 100 213 0 17
-122 16 -218 -3 -199 -40 -366 -173 -481 -385 -22 -41 -41 -70 -41 -65 0 40
213 495 259 551 9 11 57 41 106 68 277 149 408 318 461 594 24 126 26 124 -88
92z"/>
<path d="M6690 11878 c-24 -9 -40 -24 -52 -48 -12 -26 -37 -261 -102 -950 -48
-503 -104 -1094 -126 -1313 -21 -219 -36 -406 -33 -415 11 -33 54 -82 84 -98
22 -11 177 -29 562 -64 740 -69 797 -73 803 -67 3 2 14 33 24 67 13 44 15 62
7 64 -11 3 -493 49 -1032 97 -233 21 -290 31 -298 52 -3 8 14 216 38 463 64
660 73 748 105 1099 65 694 92 950 101 960 6 6 255 -13 712 -54 386 -35 703
-65 705 -66 1 -1 -161 -162 -361 -357 l-363 -356 -104 161 c-58 89 -124 187
-147 219 -43 58 -43 58 -96 58 -72 0 -118 -26 -136 -77 -8 -23 -11 -51 -7 -67
9 -35 381 -591 409 -611 22 -15 79 -19 109 -7 18 8 7 -2 643 610 279 269 448
440 463 467 21 38 22 47 12 84 -6 25 -28 59 -54 86 -36 38 -48 45 -82 45 -34
0 -44 -6 -89 -57 l-51 -57 -140 12 c-76 7 -404 37 -729 67 -749 69 -733 68
-775 53z"/>
<path d="M4902 11691 c-249 -63 -433 -242 -513 -501 -33 -105 -33 -271 -1
-385 38 -131 84 -208 192 -315 153 -154 295 -215 500 -215 123 0 195 17 304
72 234 118 389 350 403 603 18 328 -179 619 -492 726 -107 36 -282 43 -393 15z"/>
<path d="M8795 11657 c-5 -13 -20 -162 -110 -1097 -96 -990 -135 -1370 -147
-1418 -6 -26 -24 -80 -40 -120 -25 -62 -118 -403 -118 -431 0 -18 261 258 275
292 15 37 57 438 200 1916 81 830 80 827 35 851 -29 16 -91 20 -95 7z"/>
<path d="M6872 10370 c-23 -25 -58 -310 -42 -341 17 -32 40 -37 208 -50 210
-16 197 -27 218 176 16 155 13 186 -24 200 -14 5 -287 35 -324 35 -10 0 -26
-9 -36 -20z m260 -129 c4 -4 5 -37 1 -75 l-6 -69 -85 7 c-47 3 -87 8 -88 9 -2
2 0 35 3 75 l6 72 81 -6 c45 -4 84 -9 88 -13z"/>
<path d="M7427 10212 c-22 -24 -22 -75 1 -95 16 -14 197 -34 780 -86 95 -8
122 0 136 41 13 37 -13 75 -56 83 -44 7 -781 75 -817 75 -15 0 -35 -8 -44 -18z"/>
<path d="M6819 9791 c-21 -17 -25 -35 -41 -176 -11 -104 -14 -165 -7 -181 13
-37 58 -50 223 -63 195 -17 184 -27 207 186 14 135 15 162 3 185 -17 33 -22
34 -169 48 -66 6 -136 13 -156 15 -26 4 -44 0 -60 -14z m228 -127 c39 -5 42
-7 38 -32 -2 -15 -7 -53 -11 -86 l-6 -59 -51 7 c-29 3 -69 6 -90 6 l-38 0 6
58 c13 127 9 120 63 115 26 -2 66 -6 89 -9z"/>
<path d="M7377 9642 c-33 -37 -7 -112 39 -112 9 0 115 -9 235 -21 121 -12 230
-18 243 -15 14 3 29 19 36 37 11 27 11 33 -7 57 -20 26 -25 28 -229 49 -269
27 -297 28 -317 5z"/>
<path d="M3495 6134 c-224 -50 -393 -216 -451 -444 -10 -39 -17 -103 -17 -160
1 -294 176 -534 434 -595 84 -19 267 -20 344 0 159 41 294 151 364 298 49 103
64 175 64 302 -1 184 -56 318 -183 446 -112 113 -213 155 -390 164 -65 3 -117
0 -165 -11z m275 -237 c75 -28 149 -103 180 -182 29 -74 38 -222 20 -304 -25
-112 -85 -192 -178 -238 -51 -25 -67 -28 -162 -28 -94 0 -110 3 -155 27 -115
60 -183 174 -192 323 -21 313 210 504 487 402z"/>
<path d="M6120 6135 c-194 -44 -363 -196 -430 -387 -60 -170 -43 -369 43 -533
67 -126 215 -242 357 -280 73 -20 258 -19 335 0 162 42 295 148 369 295 54
108 71 196 64 335 -14 263 -165 470 -401 550 -97 32 -244 41 -337 20z m264
-235 c147 -56 237 -221 223 -411 -8 -101 -38 -177 -94 -239 -117 -130 -310
-152 -457 -50 -166 114 -198 419 -63 601 28 38 101 89 151 105 65 20 176 17
240 -6z"/>
<path d="M7555 6140 c-233 -32 -418 -197 -481 -430 -22 -82 -25 -300 -5 -380
32 -131 122 -260 229 -328 121 -78 341 -112 500 -78 182 38 318 155 360 308 6
21 7 40 2 43 -4 3 -58 16 -119 29 l-112 24 -24 -47 c-29 -58 -89 -114 -141
-132 -55 -18 -159 -16 -226 4 -87 26 -136 70 -183 161 l-40 79 0 131 c1 114 4
139 24 190 63 159 237 241 405 192 70 -21 138 -84 157 -145 15 -49 16 -49 157
-19 l104 22 -6 39 c-16 98 -119 226 -226 279 -102 51 -255 74 -375 58z"/>
<path d="M2152 5528 l3 -593 115 0 115 0 3 483 2 482 240 0 c131 0 241 3 244
8 2 4 6 52 7 107 l3 100 -367 3 -367 2 2 -592z"/>
<path d="M4600 6078 c0 -24 -5 -169 -10 -323 -16 -468 -52 -590 -180 -603
l-50 -5 0 -108 0 -109 73 0 c198 0 300 98 348 333 22 112 39 327 39 505 l0
132 180 0 180 0 2 -482 3 -483 111 -3 c85 -2 114 1 123 11 8 11 10 166 9 593
l-3 579 -412 3 -413 2 0 -42z"/>
<path d="M5330 4509 c-25 -5 -82 -27 -126 -49 -328 -162 -407 -637 -149 -895
101 -102 223 -148 385 -148 159 1 267 43 381 150 113 107 163 231 161 403 -2
316 -234 553 -537 549 -38 -1 -90 -5 -115 -10z m241 -217 c154 -66 228 -284
163 -476 -24 -70 -102 -150 -172 -176 -75 -29 -196 -25 -259 8 -102 53 -161
151 -170 283 -13 182 67 318 217 373 57 21 157 15 221 -12z"/>
<path d="M1573 4495 c-68 -19 -124 -47 -167 -86 -38 -33 -112 -168 -99 -180
10 -9 164 -49 191 -49 12 0 23 9 27 20 10 30 54 79 87 96 41 21 145 22 185 1
46 -24 63 -54 63 -112 0 -88 -35 -117 -150 -125 l-75 -5 -3 -87 -3 -88 76 0
c134 0 190 -45 182 -147 -4 -59 -24 -88 -74 -109 -46 -20 -150 -17 -198 5 -38
17 -91 67 -113 107 -9 17 -16 16 -111 -10 -67 -19 -101 -33 -101 -43 0 -17 35
-87 63 -127 11 -16 47 -46 79 -67 83 -53 179 -73 317 -66 127 6 200 31 267 90
66 58 87 105 92 208 4 72 1 93 -18 137 -24 56 -75 108 -115 118 -27 7 -34 24
-11 24 22 0 94 78 107 118 19 54 17 149 -4 204 -24 62 -97 129 -173 158 -76
29 -243 37 -321 15z"/>
<path d="M8451 4494 c-88 -23 -166 -72 -234 -143 -75 -81 -111 -145 -137 -247
-36 -140 -18 -306 47 -427 15 -29 55 -80 88 -113 102 -104 212 -146 378 -145
177 0 293 47 401 161 100 106 146 227 146 385 0 161 -50 285 -160 396 -106
108 -213 149 -380 148 -52 0 -119 -7 -149 -15z m274 -203 c62 -27 121 -85 152
-149 23 -48 28 -73 31 -162 3 -90 1 -113 -18 -164 -56 -149 -210 -230 -362
-191 -158 40 -238 153 -238 335 0 178 84 306 228 347 59 16 150 9 207 -16z"/>
<path d="M2580 4480 c-11 -20 -159 -449 -290 -838 -50 -148 -65 -204 -56 -208
7 -3 57 -3 112 -2 l99 3 39 113 38 112 211 -2 210 -3 37 -110 37 -110 107 -3
c81 -2 108 0 111 11 5 11 -306 919 -350 1025 l-14 32 -140 0 c-130 0 -141 -1
-151 -20z m294 -605 c6 -19 1 -20 -144 -20 -83 0 -150 1 -150 1 0 3 134 383
146 414 5 11 103 -253 148 -395z"/>
<path d="M3937 4493 c-4 -3 -7 -56 -7 -117 0 -314 -32 -560 -88 -679 l-27 -60
-55 -1 -55 -1 -3 -207 -2 -208 105 0 105 0 0 105 0 105 335 0 334 0 3 -102 3
-103 103 -3 102 -3 -2 208 -3 208 -62 3 -63 3 -2 427 -3 427 -356 3 c-195 1
-358 -1 -362 -5z m503 -523 l0 -330 -196 0 c-183 0 -196 1 -189 18 39 102 70
293 80 505 l7 137 149 0 149 0 0 -330z"/>
<path d="M6175 4488 c-3 -7 -4 -247 -3 -533 l3 -520 200 -3 c314 -5 433 22
516 116 54 61 73 130 67 241 -7 130 -54 208 -157 260 -59 30 -134 41 -276 41
l-135 0 0 105 0 105 253 2 252 3 0 95 0 95 -358 3 c-281 2 -359 0 -362 -10z
m476 -588 c56 -16 82 -51 87 -119 5 -70 -14 -113 -61 -138 -24 -13 -63 -18
-159 -21 l-128 -4 0 146 0 146 113 0 c61 0 128 -5 148 -10z"/>
<path d="M7155 4489 c-3 -8 -4 -248 -3 -534 l3 -520 105 0 105 0 3 180 2 180
79 -3 c43 -2 120 1 170 7 198 22 303 114 320 280 22 218 -72 363 -259 399 -30
6 -160 14 -287 18 -191 5 -234 4 -238 -7z m486 -205 c61 -31 88 -151 51 -224
-28 -57 -65 -71 -202 -77 l-120 -6 0 162 0 161 120 0 c90 0 129 -4 151 -16z"/>
</g>
</svg>
